<?xml version="1.0" encoding="utf-8"?>
<svg xmlns="http://www.w3.org/2000/svg" width="257.00999603271487" height="52.864064299155906" viewBox="0 0 369.9130434782609 76.08695076996952"
		 class="looka-1j8o68f">
		<defs id="SvgjsDefs1740"></defs>
		<g id="SvgjsG1741" featurekey="xG21Y3-0"
		   transform="matrix(0.09423699339764884,0,0,0.09423699339764884,-9.075022751782063,-9.075022751782063)"
		   fill="#111111">
			<g xmlns="http://www.w3.org/2000/svg">
				<polygon points="500,96.3 445.7,127.6 554.3,127.6  "></polygon>
				<polygon points="540.5,820.6 459.5,820.6 500,843.9  "></polygon>
				<polygon points="500,156.1 459.5,179.4 540.5,179.4  "></polygon>
				<polygon points="414.1,179.4 464.5,150.4 406.3,150.4 355.9,179.4  "></polygon>
				<polygon points="298.1,150.4 266.8,204.7 360.9,150.4  "></polygon>
				<polygon points="304.7,242.6 374.8,202.2 328,202.2  "></polygon>
				<polygon points="585.9,179.4 644.1,179.4 593.7,150.4 535.5,150.4  "></polygon>
				<polygon points="328,797.8 374.8,797.8 304.7,757.4  "></polygon>
				<polygon points="757.4,304.7 797.8,374.8 797.8,328  "></polygon>
				<polygon points="625.2,202.2 695.3,242.6 672,202.2  "></polygon>
				<polygon points="843.9,500 820.6,459.5 820.6,540.5  "></polygon>
				<polygon points="849.6,298.1 795.3,266.8 849.6,360.9  "></polygon>
				<polygon points="797.8,625.2 757.4,695.3 797.8,672  "></polygon>
				<polygon points="849.6,406.3 820.6,355.9 820.6,414.1 849.6,464.5  "></polygon>
				<polygon points="701.9,150.4 639.1,150.4 733.2,204.7  "></polygon>
				<polygon points="695.3,757.4 625.2,797.8 672,797.8  "></polygon>
				<polygon points="734.7,265.3 785,294.4 756,244 705.6,215  "></polygon>
				<polygon points="294.4,215 244,244 215,294.4 265.3,265.3  "></polygon>
				<polygon points="179.4,355.9 150.4,406.3 150.4,464.5 179.4,414.1  "></polygon>
				<polygon points="705.6,785 756,756 785,705.6 734.7,734.7  "></polygon>
				<polygon points="585.9,820.6 535.5,849.6 593.7,849.6 644.1,820.6  "></polygon>
				<polygon points="701.9,849.6 733.2,795.3 639.1,849.6  "></polygon>
				<polygon points="500,903.7 554.3,872.4 445.7,872.4  "></polygon>
				<polygon points="820.6,585.9 820.6,644.1 849.6,593.7 849.6,535.5  "></polygon>
				<polygon points="872.4,445.7 872.4,554.3 903.7,500  "></polygon>
				<polygon points="414.1,820.6 355.9,820.6 406.3,849.6 464.5,849.6  "></polygon>
				<polygon points="849.6,701.9 849.6,639.1 795.3,733.2  "></polygon>
				<polygon points="150.4,593.7 179.4,644.1 179.4,585.9 150.4,535.5  "></polygon>
				<polygon points="156.1,500 179.4,540.5 179.4,459.5  "></polygon>
				<polygon points="150.4,298.1 150.4,360.9 204.7,266.8  "></polygon>
				<polygon points="202.2,328 202.2,374.8 242.6,304.7  "></polygon>
				<polygon points="242.6,695.3 202.2,625.2 202.2,672  "></polygon>
				<polygon points="265.3,734.7 215,705.6 244,756 294.4,785  "></polygon>
				<polygon points="298.1,849.6 360.9,849.6 266.8,795.3  "></polygon>
				<polygon points="150.4,701.9 204.7,733.2 150.4,639.1  "></polygon>
				<polygon points="127.6,554.3 127.6,445.7 96.3,500  "></polygon>
			</g>
		</g>
		<g id="SvgjsG1742" featurekey="n48U4P-0"
		   transform="matrix(2.937719675191333,0,0,2.937719675191333,96.41128106270584,-4.803755925736308)" fill="#111111">
			<path d="M8.5 5.720000000000001 l5.34 14.28 l-3.26 0 l-1.08 -3.18 l-5.34 0 l-1.12 3.18 l-3.18 0 l5.42 -14.28 l3.22 0 z M6.84 9.24 l-1.86 5.24 l3.7 0 l-1.8 -5.24 l-0.04 0 z M17.700000000000003 5.720000000000001 l0 14.28 l-2.84 0 l0 -14.28 l2.84 0 z M24.72 9.38 c0.97334 0 1.84 0.22664 2.6 0.67998 s1.3567 1.11 1.79 1.97 s0.65 1.85 0.65 2.97 c0 0.10666 -0.0066602 0.28 -0.02 0.52 l-7.46 0 c0.02666 0.82666 0.24332 1.47 0.64998 1.93 s1.03 0.69 1.87 0.69 c0.52 0 0.99666 -0.13 1.43 -0.39 s0.71 -0.57666 0.83 -0.95 l2.5 0 c-0.73334 2.32 -2.3466 3.48 -4.84 3.48 c-0.94666 -0.01334 -1.8233 -0.22 -2.63 -0.62 s-1.45 -1.0233 -1.93 -1.87 s-0.72 -1.83 -0.72 -2.95 c0 -1.0533 0.24334 -2.0134 0.73 -2.88 s1.1333 -1.5133 1.94 -1.94 s1.6767 -0.64 2.61 -0.64 z M26.9 13.719999999999999 c-0.13334 -0.77334 -0.38 -1.3333 -0.74 -1.68 s-0.87334 -0.52 -1.54 -0.52 c-0.69334 0 -1.24 0.19666 -1.64 0.59 s-0.63334 0.93 -0.7 1.61 l4.62 0 z M33.9 9.66 l1.82 2.7 l1.8 -2.7 l3.14 0 l-3.4 4.84 l3.82 5.5 l-3.24 0 l-2.16 -3.26 l-2.16 3.26 l-3.18 0 l3.72 -5.44 l-3.4 -4.9 l3.24 0 z M47.98 9.38 c1.4267 0 2.5666 0.5 3.42 1.5 s1.28 2.3534 1.28 4.06 c0 1.56 -0.41 2.84 -1.23 3.84 s-1.9233 1.5 -3.31 1.5 c-1.36 0 -2.3934 -0.52 -3.1 -1.56 l-0.04 0 l0 4.92 l-2.84 0 l0 -13.98 l2.7 0 l0 1.32 l0.04 0 c0.68 -1.0667 1.7067 -1.6 3.08 -1.6 z M44.9 14.86 c0 1.0133 0.21336 1.8133 0.64002 2.4 s1.04 0.88 1.84 0.88 c0.82666 0 1.4433 -0.29334 1.85 -0.88 s0.61 -1.3867 0.61 -2.4 c0 -1.04 -0.22 -1.8567 -0.66 -2.45 s-1.0533 -0.89 -1.84 -0.89 s-1.39 0.29334 -1.81 0.88 s-0.63 1.4067 -0.63 2.46 z M60.419999999999995 9.38 c0.24 0 0.44668 0.03334 0.62002 0.1 l0 2.64 c-0.30666 -0.06666 -0.64666 -0.1 -1.02 -0.1 c-1.8667 0 -2.8 1.1067 -2.8 3.32 l0 4.66 l-2.84 0 l0 -10.34 l2.7 0 l0 1.92 l0.04 0 c0.28 -0.66666 0.72334 -1.2 1.33 -1.6 s1.2633 -0.6 1.97 -0.6 z M66.58 9.38 c0.97334 0 1.84 0.22664 2.6 0.67998 s1.3567 1.11 1.79 1.97 s0.65 1.85 0.65 2.97 c0 0.10666 -0.0066602 0.28 -0.02 0.52 l-7.46 0 c0.02666 0.82666 0.24332 1.47 0.64998 1.93 s1.03 0.69 1.87 0.69 c0.52 0 0.99666 -0.13 1.43 -0.39 s0.71 -0.57666 0.83 -0.95 l2.5 0 c-0.73334 2.32 -2.3466 3.48 -4.84 3.48 c-0.94666 -0.01334 -1.8233 -0.22 -2.63 -0.62 s-1.45 -1.0233 -1.93 -1.87 s-0.72 -1.83 -0.72 -2.95 c0 -1.0533 0.24334 -2.0134 0.73 -2.88 s1.1333 -1.5133 1.94 -1.94 s1.6767 -0.64 2.61 -0.64 z M68.75999999999999 13.719999999999999 c-0.13334 -0.77334 -0.38 -1.3333 -0.74 -1.68 s-0.87334 -0.52 -1.54 -0.52 c-0.69334 0 -1.24 0.19666 -1.64 0.59 s-0.63334 0.93 -0.7 1.61 l4.62 0 z M77.52000000000001 9.38 c1.3867 0 2.47 0.28002 3.25 0.84002 s1.2167 1.38 1.31 2.46 l-2.7 0 c-0.04 -0.49334 -0.22 -0.85 -0.54 -1.07 s-0.78666 -0.33 -1.4 -0.33 c-0.53334 0 -0.93 0.08 -1.19 0.24 s-0.39 0.4 -0.39 0.72 c0 0.24 0.08666 0.44 0.26 0.6 s0.43668 0.3 0.79002 0.42 s0.74334 0.22 1.17 0.3 c1.2933 0.25334 2.2066 0.51334 2.74 0.78 s0.92334 0.58666 1.17 0.96 s0.37 0.83334 0.37 1.38 c0 1.16 -0.42334 2.05 -1.27 2.67 s-1.9967 0.93 -3.45 0.93 c-1.52 0 -2.7034 -0.32666 -3.55 -0.98 s-1.2833 -1.54 -1.31 -2.66 l2.7 0 c0 0.53334 0.20666 0.95668 0.62 1.27 s0.93334 0.47 1.56 0.47 c0.53334 0 0.97668 -0.11666 1.33 -0.35 s0.53 -0.55668 0.53 -0.97002 c0 -0.26666 -0.11 -0.48666 -0.33 -0.66 s-0.53 -0.32668 -0.93 -0.46002 s-1.02 -0.28668 -1.86 -0.46002 c-0.66666 -0.13334 -1.26 -0.31334 -1.78 -0.54 s-0.91666 -0.52332 -1.19 -0.88998 s-0.41 -0.81666 -0.41 -1.35 c0 -0.68 0.16334 -1.2733 0.49 -1.78 s0.82666 -0.89 1.5 -1.15 s1.51 -0.39 2.51 -0.39 z M88.25999999999999 9.38 c1.3867 0 2.47 0.28002 3.25 0.84002 s1.2167 1.38 1.31 2.46 l-2.7 0 c-0.04 -0.49334 -0.22 -0.85 -0.54 -1.07 s-0.78666 -0.33 -1.4 -0.33 c-0.53334 0 -0.93 0.08 -1.19 0.24 s-0.39 0.4 -0.39 0.72 c0 0.24 0.08666 0.44 0.26 0.6 s0.43668 0.3 0.79002 0.42 s0.74334 0.22 1.17 0.3 c1.2933 0.25334 2.2066 0.51334 2.74 0.78 s0.92334 0.58666 1.17 0.96 s0.37 0.83334 0.37 1.38 c0 1.16 -0.42334 2.05 -1.27 2.67 s-1.9967 0.93 -3.45 0.93 c-1.52 0 -2.7034 -0.32666 -3.55 -0.98 s-1.2833 -1.54 -1.31 -2.66 l2.7 0 c0 0.53334 0.20666 0.95668 0.62 1.27 s0.93334 0.47 1.56 0.47 c0.53334 0 0.97668 -0.11666 1.33 -0.35 s0.53 -0.55668 0.53 -0.97002 c0 -0.26666 -0.11 -0.48666 -0.33 -0.66 s-0.53 -0.32668 -0.93 -0.46002 s-1.02 -0.28668 -1.86 -0.46002 c-0.66666 -0.13334 -1.26 -0.31334 -1.78 -0.54 s-0.91666 -0.52332 -1.19 -0.88998 s-0.41 -0.81666 -0.41 -1.35 c0 -0.68 0.16334 -1.2733 0.49 -1.78 s0.82666 -0.89 1.5 -1.15 s1.51 -0.39 2.51 -0.39 z"></path>
		</g>
	</svg>